{
    "patcher": {
        "fileversion": 1,
        "appversion": {
            "major": 9,
            "minor": 1,
            "revision": 2,
            "architecture": "x64",
            "modernui": 1
        },
        "classnamespace": "box",
        "rect": [ 1187.0, 146.0, 1314.0, 1161.0 ],
        "boxes": [
            {
                "box": {
                    "id": "obj-49",
                    "maxclass": "newobj",
                    "numinlets": 1,
                    "numoutlets": 0,
                    "patching_rect": [ 838.0, 296.0, 71.0, 22.0 ],
                    "text": "s saturation"
                }
            },
            {
                "box": {
                    "id": "obj-44",
                    "maxclass": "newobj",
                    "numinlets": 1,
                    "numoutlets": 0,
                    "patching_rect": [ 752.0, 296.0, 75.0, 22.0 ],
                    "text": "s noiseLevel"
                }
            },
            {
                "box": {
                    "id": "obj-42",
                    "maxclass": "newobj",
                    "numinlets": 1,
                    "numoutlets": 0,
                    "patching_rect": [ 687.0, 296.0, 53.0, 22.0 ],
                    "text": "s bscale"
                }
            },
            {
                "box": {
                    "id": "obj-41",
                    "maxclass": "newobj",
                    "numinlets": 1,
                    "numoutlets": 0,
                    "patching_rect": [ 625.0, 296.0, 53.0, 22.0 ],
                    "text": "s gscale"
                }
            },
            {
                "box": {
                    "id": "obj-30",
                    "maxclass": "newobj",
                    "numinlets": 1,
                    "numoutlets": 0,
                    "patching_rect": [ 545.0, 296.0, 50.0, 22.0 ],
                    "text": "s rscale"
                }
            },
            {
                "box": {
                    "id": "obj-124",
                    "maxclass": "comment",
                    "numinlets": 1,
                    "numoutlets": 0,
                    "patching_rect": [ 982.0, 797.0, 66.0, 20.0 ],
                    "text": "world"
                }
            },
            {
                "box": {
                    "id": "obj-125",
                    "maxclass": "comment",
                    "numinlets": 1,
                    "numoutlets": 0,
                    "patching_rect": [ 982.0, 760.0, 66.0, 20.0 ],
                    "text": "xfadeR"
                }
            },
            {
                "box": {
                    "id": "obj-126",
                    "maxclass": "comment",
                    "numinlets": 1,
                    "numoutlets": 0,
                    "patching_rect": [ 982.0, 725.0, 66.0, 20.0 ],
                    "text": "xfadeL"
                }
            },
            {
                "box": {
                    "id": "obj-127",
                    "maxclass": "comment",
                    "numinlets": 1,
                    "numoutlets": 0,
                    "patching_rect": [ 982.0, 692.0, 66.0, 20.0 ],
                    "text": "noise"
                }
            },
            {
                "box": {
                    "id": "obj-128",
                    "maxclass": "comment",
                    "numinlets": 1,
                    "numoutlets": 0,
                    "patching_rect": [ 982.0, 653.0, 66.0, 20.0 ],
                    "text": "scalebias"
                }
            },
            {
                "box": {
                    "id": "obj-129",
                    "maxclass": "comment",
                    "numinlets": 1,
                    "numoutlets": 0,
                    "patching_rect": [ 992.0, 619.0, 56.0, 20.0 ],
                    "text": "brcosa"
                }
            },
            {
                "box": {
                    "id": "obj-123",
                    "maxclass": "comment",
                    "numinlets": 1,
                    "numoutlets": 0,
                    "patching_rect": [ 1555.0, 548.0, 66.0, 20.0 ],
                    "text": "world"
                }
            },
            {
                "box": {
                    "id": "obj-122",
                    "maxclass": "comment",
                    "numinlets": 1,
                    "numoutlets": 0,
                    "patching_rect": [ 1475.0, 546.0, 66.0, 20.0 ],
                    "text": "xfadeR"
                }
            },
            {
                "box": {
                    "id": "obj-121",
                    "maxclass": "comment",
                    "numinlets": 1,
                    "numoutlets": 0,
                    "patching_rect": [ 1395.0, 546.0, 66.0, 20.0 ],
                    "text": "xfadeL"
                }
            },
            {
                "box": {
                    "id": "obj-120",
                    "maxclass": "comment",
                    "numinlets": 1,
                    "numoutlets": 0,
                    "patching_rect": [ 1308.5, 546.0, 66.0, 20.0 ],
                    "text": "noise"
                }
            },
            {
                "box": {
                    "id": "obj-117",
                    "maxclass": "comment",
                    "numinlets": 1,
                    "numoutlets": 0,
                    "patching_rect": [ 1229.0, 546.0, 66.0, 20.0 ],
                    "text": "scalebias"
                }
            },
            {
                "box": {
                    "id": "obj-116",
                    "maxclass": "comment",
                    "numinlets": 1,
                    "numoutlets": 0,
                    "patching_rect": [ 1150.0, 546.0, 56.0, 20.0 ],
                    "text": "brcosa"
                }
            },
            {
                "box": {
                    "id": "obj-113",
                    "maxclass": "comment",
                    "numinlets": 1,
                    "numoutlets": 0,
                    "patching_rect": [ 1064.0, 546.0, 41.0, 20.0 ],
                    "text": "grab"
                }
            },
            {
                "box": {
                    "id": "obj-111",
                    "maxclass": "comment",
                    "numinlets": 1,
                    "numoutlets": 0,
                    "patching_rect": [ 1187.0, 491.0, 150.0, 20.0 ],
                    "text": "Output"
                }
            },
            {
                "box": {
                    "id": "obj-109",
                    "maxclass": "comment",
                    "numinlets": 1,
                    "numoutlets": 0,
                    "patching_rect": [ 897.0, 713.0, 61.0, 20.0 ],
                    "text": "To Input"
                }
            },
            {
                "box": {
                    "id": "obj-107",
                    "maxclass": "comment",
                    "numinlets": 1,
                    "numoutlets": 0,
                    "patching_rect": [ 994.0, 583.0, 52.0, 20.0 ],
                    "text": "grab"
                }
            },
            {
                "box": {
                    "id": "obj-105",
                    "maxclass": "preset",
                    "numinlets": 1,
                    "numoutlets": 5,
                    "outlettype": [ "preset", "int", "preset", "int", "" ],
                    "patching_rect": [ 920.0, 78.0, 100.0, 40.0 ],
                    "preset_data": [
                        {
                            "number": 1,
                            "data": [ 5, "obj-6", "toggle", "int", 1, 5, "obj-25", "attrui", "attr", "saturation", 5, "obj-25", "attrui", "float", 1.0, 5, "obj-48", "attrui", "attr", "bscale", 5, "obj-48", "attrui", "float", 1.0, 5, "obj-59", "attrui", "attr", "gscale", 5, "obj-59", "attrui", "float", 1.0, 5, "obj-87", "attrui", "attr", "xfade", 5, "obj-87", "attrui", "float", 0.0, 5, "obj-11", "attrui", "attr", "rscale", 5, "obj-11", "attrui", "float", 1.0, 304, "obj-40", "matrixctrl", "list", 0, 0, 0.0, 0, 1, 1.0, 0, 2, 0.0, 0, 3, 0.0, 0, 4, 0.0, 0, 5, 0.0, 0, 6, 0.0, 0, 7, 0.0, 0, 8, 0.0, 0, 9, 0.0, 1, 0, 0.0, 1, 1, 0.0, 1, 2, 1.0, 1, 3, 0.0, 1, 4, 0.0, 1, 5, 0.0, 1, 6, 0.0, 1, 7, 0.0, 1, 8, 0.0, 1, 9, 0.0, 2, 0, 0.0, 2, 1, 0.0, 2, 2, 0.0, 2, 3, 1.0, 2, 4, 1.0, 2, 5, 0.0, 2, 6, 0.0, 2, 7, 0.0, 2, 8, 0.0, 2, 9, 0.0, 3, 0, 0.0, 3, 1, 0.0, 3, 2, 0.0, 3, 3, 0.0, 3, 4, 0.0, 3, 5, 1.0, 3, 6, 0.0, 3, 7, 0.0, 3, 8, 0.0, 3, 9, 0.0, 4, 0, 0.0, 4, 1, 0.0, 4, 2, 0.0, 4, 3, 0.0, 4, 4, 0.0, 4, 5, 0.0, 4, 6, 1.0, 4, 7, 0.0, 4, 8, 0.0, 4, 9, 0.0, 5, 0, 0.0, 5, 1, 0.0, 5, 2, 0.0, 5, 3, 0.0, 5, 4, 0.0, 5, 5, 0.0, 5, 6, 0.0, 5, 7, 0.0, 5, 8, 0.0, 5, 9, 0.0, 6, 0, 0.0, 6, 1, 0.0, 6, 2, 0.0, 6, 3, 0.0, 6, 4, 0.0, 6, 5, 0.0, 6, 6, 0.0, 6, 7, 0.0, 6, 8, 0.0, 6, 9, 0.0, 7, 0, 0.0, 7, 1, 0.0, 7, 2, 0.0, 7, 3, 0.0, 7, 4, 0.0, 7, 5, 0.0, 7, 6, 0.0, 7, 7, 0.0, 7, 8, 0.0, 7, 9, 0.0, 8, 0, 0.0, 8, 1, 0.0, 8, 2, 0.0, 8, 3, 0.0, 8, 4, 0.0, 8, 5, 0.0, 8, 6, 0.0, 8, 7, 0.0, 8, 8, 0.0, 8, 9, 0.0, 9, 0, 0.0, 9, 1, 0.0, 9, 2, 0.0, 9, 3, 0.0, 9, 4, 0.0, 9, 5, 0.0, 9, 6, 0.0, 9, 7, 0.0, 9, 8, 0.0, 9, 9, 0.0, 5, "obj-86", "toggle", "int", 0 ]
                        }
                    ]
                }
            },
            {
                "box": {
                    "id": "obj-104",
                    "maxclass": "newobj",
                    "numinlets": 1,
                    "numoutlets": 1,
                    "outlettype": [ "bang" ],
                    "patching_rect": [ 1050.0, 477.0, 58.0, 22.0 ],
                    "text": "loadbang"
                }
            },
            {
                "box": {
                    "id": "obj-102",
                    "maxclass": "newobj",
                    "numinlets": 1,
                    "numoutlets": 0,
                    "patching_rect": [ 1531.2, 1063.0, 66.0, 22.0 ],
                    "text": "s xfadeInR"
                }
            },
            {
                "box": {
                    "id": "obj-101",
                    "maxclass": "newobj",
                    "numinlets": 1,
                    "numoutlets": 0,
                    "patching_rect": [ 1611.4, 1063.0, 57.0, 22.0 ],
                    "text": "s worldIn"
                }
            },
            {
                "box": {
                    "id": "obj-98",
                    "maxclass": "message",
                    "numinlets": 2,
                    "numoutlets": 1,
                    "outlettype": [ "" ],
                    "patching_rect": [ 1079.0, 955.0, 103.0, 22.0 ],
                    "text": "dumpconnections"
                }
            },
            {
                "box": {
                    "id": "obj-95",
                    "maxclass": "newobj",
                    "numinlets": 1,
                    "numoutlets": 0,
                    "patching_rect": [ 1150.0, 1148.0, 32.0, 22.0 ],
                    "text": "print"
                }
            },
            {
                "box": {
                    "id": "obj-86",
                    "maxclass": "toggle",
                    "numinlets": 1,
                    "numoutlets": 1,
                    "outlettype": [ "int" ],
                    "parameter_enable": 0,
                    "patching_rect": [ 962.0, 970.0, 24.0, 24.0 ]
                }
            },
            {
                "box": {
                    "id": "obj-81",
                    "maxclass": "jit.pwindow",
                    "numinlets": 1,
                    "numoutlets": 2,
                    "outlettype": [ "jit_matrix", "" ],
                    "patching_rect": [ 103.0, 356.0, 80.0, 60.0 ],
                    "sync": 1
                }
            },
            {
                "box": {
                    "id": "obj-80",
                    "maxclass": "newobj",
                    "numinlets": 0,
                    "numoutlets": 1,
                    "outlettype": [ "" ],
                    "patching_rect": [ 1611.4, 988.0, 55.0, 22.0 ],
                    "text": "r worldIn"
                }
            },
            {
                "box": {
                    "id": "obj-79",
                    "maxclass": "message",
                    "numinlets": 2,
                    "numoutlets": 1,
                    "outlettype": [ "" ],
                    "patching_rect": [ 1050.0, 513.0, 265.0, 22.0 ],
                    "text": "disablecell 0 0 1 1 2 2 3 3 4 4 5 5 6 6 7 7 8 8 9 9"
                }
            },
            {
                "box": {
                    "id": "obj-78",
                    "maxclass": "newobj",
                    "numinlets": 1,
                    "numoutlets": 0,
                    "patching_rect": [ 1453.0, 1063.0, 64.0, 22.0 ],
                    "text": "s xfadeInL"
                }
            },
            {
                "box": {
                    "id": "obj-76",
                    "maxclass": "newobj",
                    "numinlets": 0,
                    "numoutlets": 1,
                    "outlettype": [ "" ],
                    "patching_rect": [ 1451.0, 988.0, 65.0, 22.0 ],
                    "text": "r xfadeOut"
                }
            },
            {
                "box": {
                    "id": "obj-74",
                    "maxclass": "newobj",
                    "numinlets": 1,
                    "numoutlets": 0,
                    "patching_rect": [ 1373.5, 1063.0, 57.0, 22.0 ],
                    "text": "s noiseIn"
                }
            },
            {
                "box": {
                    "id": "obj-73",
                    "maxclass": "newobj",
                    "numinlets": 0,
                    "numoutlets": 1,
                    "outlettype": [ "" ],
                    "patching_rect": [ 1370.0, 988.0, 64.0, 22.0 ],
                    "text": "r noiseOut"
                }
            },
            {
                "box": {
                    "id": "obj-72",
                    "maxclass": "newobj",
                    "numinlets": 1,
                    "numoutlets": 0,
                    "patching_rect": [ 1290.6, 1063.0, 78.0, 22.0 ],
                    "text": "s scalebiasIn"
                }
            },
            {
                "box": {
                    "id": "obj-71",
                    "maxclass": "newobj",
                    "numinlets": 0,
                    "numoutlets": 1,
                    "outlettype": [ "" ],
                    "patching_rect": [ 1290.6, 988.0, 85.0, 22.0 ],
                    "text": "r scalebiasOut"
                }
            },
            {
                "box": {
                    "id": "obj-64",
                    "maxclass": "newobj",
                    "numinlets": 1,
                    "numoutlets": 0,
                    "patching_rect": [ 1210.4, 1063.0, 64.0, 22.0 ],
                    "text": "s brcosaIn"
                }
            },
            {
                "box": {
                    "id": "obj-63",
                    "maxclass": "newobj",
                    "numinlets": 0,
                    "numoutlets": 1,
                    "outlettype": [ "" ],
                    "patching_rect": [ 1210.4, 988.0, 71.0, 22.0 ],
                    "text": "r brcosaOut"
                }
            },
            {
                "box": {
                    "id": "obj-62",
                    "maxclass": "newobj",
                    "numinlets": 1,
                    "numoutlets": 0,
                    "patching_rect": [ 1130.2, 1063.0, 52.0, 22.0 ],
                    "text": "s grabIn"
                }
            },
            {
                "box": {
                    "id": "obj-61",
                    "maxclass": "newobj",
                    "numinlets": 0,
                    "numoutlets": 1,
                    "outlettype": [ "" ],
                    "patching_rect": [ 1130.2, 988.0, 59.0, 22.0 ],
                    "text": "r grabOut"
                }
            },
            {
                "box": {
                    "id": "obj-60",
                    "maxclass": "newobj",
                    "numinlets": 11,
                    "numoutlets": 11,
                    "outlettype": [ "dictionary", "", "", "", "", "", "", "", "", "", "" ],
                    "patching_rect": [ 1050.0, 1025.0, 821.0, 22.0 ],
                    "text": "matrix 10 10"
                }
            },
            {
                "box": {
                    "id": "obj-55",
                    "maxclass": "newobj",
                    "numinlets": 2,
                    "numoutlets": 2,
                    "outlettype": [ "", "" ],
                    "patching_rect": [ 1453.0, 420.0, 36.0, 22.0 ],
                    "text": "route"
                }
            },
            {
                "box": {
                    "columns": 10,
                    "id": "obj-40",
                    "maxclass": "matrixctrl",
                    "numinlets": 1,
                    "numoutlets": 2,
                    "outlettype": [ "list", "list" ],
                    "parameter_enable": 0,
                    "patching_rect": [ 1050.0, 575.0, 828.0, 360.0 ],
                    "rows": 10
                }
            },
            {
                "box": {
                    "id": "obj-36",
                    "maxclass": "newobj",
                    "numinlets": 0,
                    "numoutlets": 1,
                    "outlettype": [ "" ],
                    "patching_rect": [ 968.0, 1028.0, 45.0, 22.0 ],
                    "text": "r onOff"
                }
            },
            {
                "box": {
                    "id": "obj-32",
                    "maxclass": "newobj",
                    "numinlets": 0,
                    "numoutlets": 1,
                    "outlettype": [ "" ],
                    "patching_rect": [ 1416.0, 143.0, 45.0, 22.0 ],
                    "text": "r onOff"
                }
            },
            {
                "box": {
                    "id": "obj-27",
                    "maxclass": "newobj",
                    "numinlets": 0,
                    "numoutlets": 1,
                    "outlettype": [ "" ],
                    "patching_rect": [ 885.0, 1028.0, 55.0, 22.0 ],
                    "text": "r worldIn"
                }
            },
            {
                "box": {
                    "id": "obj-23",
                    "maxclass": "newobj",
                    "numinlets": 1,
                    "numoutlets": 0,
                    "patching_rect": [ 619.0, 1002.0, 67.0, 22.0 ],
                    "text": "s xfadeOut"
                }
            },
            {
                "box": {
                    "id": "obj-22",
                    "maxclass": "newobj",
                    "numinlets": 0,
                    "numoutlets": 1,
                    "outlettype": [ "" ],
                    "patching_rect": [ 254.0, 307.0, 62.0, 22.0 ],
                    "text": "r brcosaIn"
                }
            },
            {
                "box": {
                    "id": "obj-20",
                    "maxclass": "newobj",
                    "numinlets": 0,
                    "numoutlets": 1,
                    "outlettype": [ "" ],
                    "patching_rect": [ 781.0, 913.0, 64.0, 22.0 ],
                    "text": "r xfadeInR"
                }
            },
            {
                "box": {
                    "id": "obj-18",
                    "maxclass": "newobj",
                    "numinlets": 0,
                    "numoutlets": 1,
                    "outlettype": [ "" ],
                    "patching_rect": [ 1345.0, 211.0, 55.0, 22.0 ],
                    "text": "r noiseIn"
                }
            },
            {
                "box": {
                    "id": "obj-69",
                    "maxclass": "newobj",
                    "numinlets": 2,
                    "numoutlets": 2,
                    "outlettype": [ "jit_matrix", "" ],
                    "patching_rect": [ 1345.0, 251.0, 29.5, 22.0 ],
                    "text": "jit.+"
                }
            },
            {
                "box": {
                    "id": "obj-19",
                    "maxclass": "newobj",
                    "numinlets": 1,
                    "numoutlets": 0,
                    "patching_rect": [ 1345.0, 283.0, 66.0, 22.0 ],
                    "text": "s noiseOut"
                }
            },
            {
                "box": {
                    "id": "obj-17",
                    "maxclass": "newobj",
                    "numinlets": 0,
                    "numoutlets": 1,
                    "outlettype": [ "" ],
                    "patching_rect": [ 509.0, 913.0, 62.0, 22.0 ],
                    "text": "r xfadeInL"
                }
            },
            {
                "box": {
                    "id": "obj-15",
                    "maxclass": "newobj",
                    "numinlets": 1,
                    "numoutlets": 0,
                    "patching_rect": [ 373.0, 683.0, 87.0, 22.0 ],
                    "text": "s scalebiasOut"
                }
            },
            {
                "box": {
                    "id": "obj-14",
                    "maxclass": "newobj",
                    "numinlets": 1,
                    "numoutlets": 0,
                    "patching_rect": [ 68.5, 242.0, 61.0, 22.0 ],
                    "text": "s grabOut"
                }
            },
            {
                "box": {
                    "id": "obj-13",
                    "maxclass": "newobj",
                    "numinlets": 1,
                    "numoutlets": 0,
                    "patching_rect": [ 320.0, 375.0, 73.0, 22.0 ],
                    "text": "s brcosaOut"
                }
            },
            {
                "box": {
                    "id": "obj-12",
                    "maxclass": "newobj",
                    "numinlets": 0,
                    "numoutlets": 1,
                    "outlettype": [ "" ],
                    "patching_rect": [ 61.0, 513.0, 76.0, 22.0 ],
                    "text": "r scalebiasIn"
                }
            },
            {
                "box": {
                    "attr": "rscale",
                    "id": "obj-11",
                    "maxclass": "attrui",
                    "numinlets": 1,
                    "numoutlets": 1,
                    "outlettype": [ "" ],
                    "parameter_enable": 0,
                    "patching_rect": [ 545.0, 591.0, 150.0, 22.0 ]
                }
            },
            {
                "box": {
                    "id": "obj-10",
                    "maxclass": "newobj",
                    "numinlets": 0,
                    "numoutlets": 1,
                    "outlettype": [ "" ],
                    "patching_rect": [ 545.0, 556.0, 48.0, 22.0 ],
                    "text": "r rscale"
                }
            },
            {
                "box": {
                    "id": "obj-8",
                    "maxclass": "newobj",
                    "numinlets": 0,
                    "numoutlets": 1,
                    "outlettype": [ "" ],
                    "patching_rect": [ 381.0, 556.0, 51.0, 22.0 ],
                    "text": "r gscale"
                }
            },
            {
                "box": {
                    "id": "obj-5",
                    "maxclass": "newobj",
                    "numinlets": 0,
                    "numoutlets": 1,
                    "outlettype": [ "" ],
                    "patching_rect": [ 106.5, 144.0, 45.0, 22.0 ],
                    "text": "r onOff"
                }
            },
            {
                "box": {
                    "id": "obj-4",
                    "maxclass": "newobj",
                    "numinlets": 1,
                    "numoutlets": 0,
                    "patching_rect": [ 112.5, 73.0, 47.0, 22.0 ],
                    "text": "s onOff"
                }
            },
            {
                "box": {
                    "id": "obj-2",
                    "maxclass": "newobj",
                    "numinlets": 0,
                    "numoutlets": 1,
                    "outlettype": [ "" ],
                    "patching_rect": [ 216.0, 556.0, 51.0, 22.0 ],
                    "text": "r bscale"
                }
            },
            {
                "box": {
                    "id": "obj-99",
                    "maxclass": "newobj",
                    "numinlets": 1,
                    "numoutlets": 3,
                    "outlettype": [ "jit_matrix", "bang", "" ],
                    "patching_rect": [ 887.0, 1074.0, 81.0, 22.0 ],
                    "text": "jit.world video"
                }
            },
            {
                "box": {
                    "id": "obj-88",
                    "maxclass": "newobj",
                    "numinlets": 0,
                    "numoutlets": 1,
                    "outlettype": [ "" ],
                    "patching_rect": [ 619.0, 877.0, 73.0, 22.0 ],
                    "text": "r noiseLevel"
                }
            },
            {
                "box": {
                    "attr": "xfade",
                    "id": "obj-87",
                    "maxclass": "attrui",
                    "numinlets": 1,
                    "numoutlets": 1,
                    "outlettype": [ "" ],
                    "parameter_enable": 0,
                    "patching_rect": [ 619.0, 913.0, 150.0, 22.0 ]
                }
            },
            {
                "box": {
                    "id": "obj-84",
                    "maxclass": "newobj",
                    "numinlets": 2,
                    "numoutlets": 2,
                    "outlettype": [ "jit_matrix", "" ],
                    "patching_rect": [ 619.0, 965.0, 50.0, 22.0 ],
                    "text": "jit.xfade"
                }
            },
            {
                "box": {
                    "id": "obj-75",
                    "maxclass": "newobj",
                    "numinlets": 2,
                    "numoutlets": 1,
                    "outlettype": [ "bang" ],
                    "patching_rect": [ 1416.0, 177.0, 56.0, 22.0 ],
                    "text": "metro 50"
                }
            },
            {
                "box": {
                    "id": "obj-67",
                    "maxclass": "newobj",
                    "numinlets": 1,
                    "numoutlets": 2,
                    "outlettype": [ "jit_matrix", "" ],
                    "patching_rect": [ 1416.0, 211.0, 133.0, 22.0 ],
                    "text": "jit.noise 4 char 400 400"
                }
            },
            {
                "box": {
                    "attr": "gscale",
                    "id": "obj-59",
                    "maxclass": "attrui",
                    "numinlets": 1,
                    "numoutlets": 1,
                    "outlettype": [ "" ],
                    "parameter_enable": 0,
                    "patching_rect": [ 381.0, 591.0, 150.0, 22.0 ]
                }
            },
            {
                "box": {
                    "attr": "bscale",
                    "id": "obj-48",
                    "maxclass": "attrui",
                    "numinlets": 1,
                    "numoutlets": 1,
                    "outlettype": [ "" ],
                    "parameter_enable": 0,
                    "patching_rect": [ 216.0, 591.0, 150.0, 22.0 ]
                }
            },
            {
                "box": {
                    "id": "obj-46",
                    "maxclass": "newobj",
                    "numinlets": 1,
                    "numoutlets": 2,
                    "outlettype": [ "jit_matrix", "" ],
                    "patching_rect": [ 373.0, 637.0, 71.0, 22.0 ],
                    "text": "jit.scalebias"
                }
            },
            {
                "box": {
                    "id": "obj-35",
                    "maxclass": "newobj",
                    "numinlets": 0,
                    "numoutlets": 1,
                    "outlettype": [ "" ],
                    "patching_rect": [ 320.0, 172.0, 69.0, 22.0 ],
                    "text": "r saturation"
                }
            },
            {
                "box": {
                    "attr": "saturation",
                    "id": "obj-25",
                    "maxclass": "attrui",
                    "numinlets": 1,
                    "numoutlets": 1,
                    "outlettype": [ "" ],
                    "parameter_enable": 0,
                    "patching_rect": [ 320.0, 307.0, 150.0, 22.0 ]
                }
            },
            {
                "box": {
                    "id": "obj-24",
                    "maxclass": "newobj",
                    "numinlets": 1,
                    "numoutlets": 2,
                    "outlettype": [ "jit_matrix", "" ],
                    "patching_rect": [ 320.0, 342.0, 57.0, 22.0 ],
                    "text": "jit.brcosa"
                }
            },
            {
                "box": {
                    "id": "obj-21",
                    "maxclass": "newobj",
                    "numinlets": 6,
                    "numoutlets": 6,
                    "outlettype": [ "", "", "", "", "", "" ],
                    "patching_rect": [ 596.0, 257.0, 281.0, 22.0 ],
                    "text": "route /rscale /gscale /bscale /noiseLevel /saturation"
                }
            },
            {
                "box": {
                    "id": "obj-16",
                    "maxclass": "newobj",
                    "numinlets": 1,
                    "numoutlets": 1,
                    "outlettype": [ "" ],
                    "patching_rect": [ 596.0, 211.0, 97.0, 22.0 ],
                    "text": "udpreceive 5000"
                }
            },
            {
                "box": {
                    "id": "obj-9",
                    "maxclass": "newobj",
                    "numinlets": 2,
                    "numoutlets": 1,
                    "outlettype": [ "bang" ],
                    "patching_rect": [ 106.5, 175.0, 63.0, 22.0 ],
                    "text": "qmetro 33"
                }
            },
            {
                "box": {
                    "id": "obj-6",
                    "maxclass": "toggle",
                    "numinlets": 1,
                    "numoutlets": 1,
                    "outlettype": [ "int" ],
                    "parameter_enable": 0,
                    "patching_rect": [ 112.5, 37.0, 24.0, 24.0 ]
                }
            },
            {
                "box": {
                    "id": "obj-1",
                    "maxclass": "newobj",
                    "numinlets": 1,
                    "numoutlets": 2,
                    "outlettype": [ "jit_matrix", "" ],
                    "patching_rect": [ 68.5, 204.0, 91.0, 22.0 ],
                    "text": "jit.grab 640 480"
                }
            }
        ],
        "lines": [
            {
                "patchline": {
                    "destination": [ "obj-14", 0 ],
                    "source": [ "obj-1", 0 ]
                }
            },
            {
                "patchline": {
                    "destination": [ "obj-11", 0 ],
                    "source": [ "obj-10", 0 ]
                }
            },
            {
                "patchline": {
                    "destination": [ "obj-79", 0 ],
                    "source": [ "obj-104", 0 ]
                }
            },
            {
                "patchline": {
                    "destination": [ "obj-46", 0 ],
                    "source": [ "obj-11", 0 ]
                }
            },
            {
                "patchline": {
                    "destination": [ "obj-46", 0 ],
                    "source": [ "obj-12", 0 ]
                }
            },
            {
                "patchline": {
                    "destination": [ "obj-21", 0 ],
                    "source": [ "obj-16", 0 ]
                }
            },
            {
                "patchline": {
                    "destination": [ "obj-84", 0 ],
                    "source": [ "obj-17", 0 ]
                }
            },
            {
                "patchline": {
                    "destination": [ "obj-69", 0 ],
                    "source": [ "obj-18", 0 ]
                }
            },
            {
                "patchline": {
                    "destination": [ "obj-48", 0 ],
                    "source": [ "obj-2", 0 ]
                }
            },
            {
                "patchline": {
                    "destination": [ "obj-84", 1 ],
                    "source": [ "obj-20", 0 ]
                }
            },
            {
                "patchline": {
                    "destination": [ "obj-30", 0 ],
                    "source": [ "obj-21", 0 ]
                }
            },
            {
                "patchline": {
                    "destination": [ "obj-41", 0 ],
                    "source": [ "obj-21", 1 ]
                }
            },
            {
                "patchline": {
                    "destination": [ "obj-42", 0 ],
                    "source": [ "obj-21", 2 ]
                }
            },
            {
                "patchline": {
                    "destination": [ "obj-44", 0 ],
                    "source": [ "obj-21", 3 ]
                }
            },
            {
                "patchline": {
                    "destination": [ "obj-49", 0 ],
                    "source": [ "obj-21", 4 ]
                }
            },
            {
                "patchline": {
                    "destination": [ "obj-24", 0 ],
                    "order": 0,
                    "source": [ "obj-22", 0 ]
                }
            },
            {
                "patchline": {
                    "destination": [ "obj-81", 0 ],
                    "order": 1,
                    "source": [ "obj-22", 0 ]
                }
            },
            {
                "patchline": {
                    "destination": [ "obj-13", 0 ],
                    "source": [ "obj-24", 0 ]
                }
            },
            {
                "patchline": {
                    "destination": [ "obj-24", 0 ],
                    "source": [ "obj-25", 0 ]
                }
            },
            {
                "patchline": {
                    "destination": [ "obj-99", 0 ],
                    "source": [ "obj-27", 0 ]
                }
            },
            {
                "patchline": {
                    "destination": [ "obj-75", 0 ],
                    "source": [ "obj-32", 0 ]
                }
            },
            {
                "patchline": {
                    "destination": [ "obj-25", 0 ],
                    "source": [ "obj-35", 0 ]
                }
            },
            {
                "patchline": {
                    "destination": [ "obj-99", 0 ],
                    "source": [ "obj-36", 0 ]
                }
            },
            {
                "patchline": {
                    "destination": [ "obj-60", 0 ],
                    "source": [ "obj-40", 0 ]
                }
            },
            {
                "patchline": {
                    "destination": [ "obj-15", 0 ],
                    "source": [ "obj-46", 0 ]
                }
            },
            {
                "patchline": {
                    "destination": [ "obj-46", 0 ],
                    "source": [ "obj-48", 0 ]
                }
            },
            {
                "patchline": {
                    "destination": [ "obj-1", 0 ],
                    "order": 1,
                    "source": [ "obj-5", 0 ]
                }
            },
            {
                "patchline": {
                    "destination": [ "obj-9", 0 ],
                    "order": 0,
                    "source": [ "obj-5", 0 ]
                }
            },
            {
                "patchline": {
                    "destination": [ "obj-46", 0 ],
                    "source": [ "obj-59", 0 ]
                }
            },
            {
                "patchline": {
                    "destination": [ "obj-4", 0 ],
                    "source": [ "obj-6", 0 ]
                }
            },
            {
                "patchline": {
                    "destination": [ "obj-101", 0 ],
                    "source": [ "obj-60", 7 ]
                }
            },
            {
                "patchline": {
                    "destination": [ "obj-102", 0 ],
                    "source": [ "obj-60", 6 ]
                }
            },
            {
                "patchline": {
                    "destination": [ "obj-62", 0 ],
                    "source": [ "obj-60", 1 ]
                }
            },
            {
                "patchline": {
                    "destination": [ "obj-64", 0 ],
                    "source": [ "obj-60", 2 ]
                }
            },
            {
                "patchline": {
                    "destination": [ "obj-72", 0 ],
                    "source": [ "obj-60", 3 ]
                }
            },
            {
                "patchline": {
                    "destination": [ "obj-74", 0 ],
                    "source": [ "obj-60", 4 ]
                }
            },
            {
                "patchline": {
                    "destination": [ "obj-78", 0 ],
                    "source": [ "obj-60", 5 ]
                }
            },
            {
                "patchline": {
                    "destination": [ "obj-95", 0 ],
                    "source": [ "obj-60", 0 ]
                }
            },
            {
                "patchline": {
                    "destination": [ "obj-60", 1 ],
                    "source": [ "obj-61", 0 ]
                }
            },
            {
                "patchline": {
                    "destination": [ "obj-60", 2 ],
                    "source": [ "obj-63", 0 ]
                }
            },
            {
                "patchline": {
                    "destination": [ "obj-69", 1 ],
                    "source": [ "obj-67", 0 ]
                }
            },
            {
                "patchline": {
                    "destination": [ "obj-19", 0 ],
                    "source": [ "obj-69", 0 ]
                }
            },
            {
                "patchline": {
                    "destination": [ "obj-60", 3 ],
                    "source": [ "obj-71", 0 ]
                }
            },
            {
                "patchline": {
                    "destination": [ "obj-60", 4 ],
                    "source": [ "obj-73", 0 ]
                }
            },
            {
                "patchline": {
                    "destination": [ "obj-67", 0 ],
                    "source": [ "obj-75", 0 ]
                }
            },
            {
                "patchline": {
                    "destination": [ "obj-60", 5 ],
                    "source": [ "obj-76", 0 ]
                }
            },
            {
                "patchline": {
                    "destination": [ "obj-40", 0 ],
                    "source": [ "obj-79", 0 ]
                }
            },
            {
                "patchline": {
                    "destination": [ "obj-59", 0 ],
                    "source": [ "obj-8", 0 ]
                }
            },
            {
                "patchline": {
                    "destination": [ "obj-60", 7 ],
                    "source": [ "obj-80", 0 ]
                }
            },
            {
                "patchline": {
                    "destination": [ "obj-23", 0 ],
                    "source": [ "obj-84", 0 ]
                }
            },
            {
                "patchline": {
                    "destination": [ "obj-99", 0 ],
                    "source": [ "obj-86", 0 ]
                }
            },
            {
                "patchline": {
                    "destination": [ "obj-84", 0 ],
                    "source": [ "obj-87", 0 ]
                }
            },
            {
                "patchline": {
                    "destination": [ "obj-87", 0 ],
                    "source": [ "obj-88", 0 ]
                }
            },
            {
                "patchline": {
                    "destination": [ "obj-1", 0 ],
                    "source": [ "obj-9", 0 ]
                }
            },
            {
                "patchline": {
                    "destination": [ "obj-60", 0 ],
                    "source": [ "obj-98", 0 ]
                }
            }
        ],
        "autosave": 0
    }
}